<svg width="128" height="128" viewBox="0 0 128 128" fill="none" xmlns="http://www.w3.org/2000/svg">
<g clip-path="url(#clip0_1_2)">
<path d="M117.933 71.9101C112.373 71.9101 107.865 67.4028 107.865 61.8427L107.865 0H128V61.8427C128 67.4028 123.493 71.9101 117.933 71.9101V71.9101Z" fill="#DF6688"/>
<path d="M56.0899 10.0674C56.0899 4.50734 60.5972 0 66.1573 0L128 0V20.1348L66.1573 20.1348C60.5972 20.1348 56.0899 15.6275 56.0899 10.0674V10.0674Z" fill="#DF6688"/>
<path d="M97.7977 128C92.2377 128 87.7303 123.493 87.7303 117.933L87.7303 56.0899H107.865L107.865 117.933C107.865 123.493 103.358 128 97.7977 128V128Z" fill="#66DF96"/>
<path d="M35.9551 66.1573C35.9551 60.5972 40.4624 56.0899 46.0225 56.0899L107.865 56.0899V76.2247H46.0225C40.4624 76.2247 35.9551 71.7174 35.9551 66.1573V66.1573Z" fill="#66DF96"/>
<path d="M61.8427 92.0449C56.2826 92.0449 51.7753 87.5376 51.7753 81.9775L51.7753 20.1348H71.9101L71.9101 81.9775C71.9101 87.5376 67.4028 92.0449 61.8427 92.0449V92.0449Z" fill="#66DFDF"/>
<path d="M0 30.2022C0 24.6422 4.50734 20.1348 10.0674 20.1348L71.9101 20.1348V40.2697L10.0674 40.2697C4.50733 40.2697 0 35.7623 0 30.2022V30.2022Z" fill="#66DFDF"/>
<circle cx="35.9551" cy="92.0449" r="10.0674" fill="#DF6688"/>
</g>
<defs>
<clipPath id="clip0_1_2">
<rect width="128" height="128" fill="white"/>
</clipPath>
</defs>
</svg>
