<svg width="1920" height="1080" viewBox="0 0 1920 1080" xmlns="http://www.w3.org/2000/svg"><rect width="1920" height="1080" fill="#df6688"/><path d="M 0,1080 C 0,1080 0,120 0,120 C 48.32013703049974,105.20674998576553 96.64027406099947,90.41349997153107 153,79 C 209.35972593900053,67.58650002846893 273.7590407865019,59.55275009964129 337,76 C 400.2409592134981,92.44724990035871 462.3235627929929,133.3754996299038 524,133 C 585.6764372070071,132.6245003700962 646.9467080415267,90.9452513807436 714,80 C 781.0532919584733,69.0547486192564 853.8896050409003,88.8434948471218 899,103 C 944.1103949590997,117.1565051528782 961.4948717948719,125.68076923076924 1019,133 C 1076.5051282051281,140.31923076923076 1174.1309077796125,146.4334282298013 1240,141 C 1305.8690922203875,135.5665717701987 1339.9814970866785,118.58551785002561 1392,127 C 1444.0185029133215,135.4144821499744 1513.9431038736739,169.22450037009625 1574,159 C 1634.0568961263261,148.77549962990375 1684.2460874186263,94.51648066958947 1749,83 C 1813.7539125813737,71.48351933041053 1893.0725464518212,102.70957695154587 1924,116 C 1954.9274535481788,129.29042304845413 1937.4637267740895,124.64521152422707 1920,120 C 1920,120 1920,1080 1920,1080 Z" fill="#3d1053" opacity="0.06666666666666667"/><path d="M 0,1080 C 0,1080 0,240 0,240 C 56.31059329271764,243.79067831995295 112.62118658543528,247.5813566399059 178,259 C 243.37881341456472,270.4186433600941 317.8258469509765,289.4652517603295 377,273 C 436.1741530490235,256.5347482396705 480.07542561065884,204.55763631877616 538,199 C 595.9245743893412,193.44236368122384 667.8724506063884,234.30420296456572 717,253 C 766.1275493936116,271.6957970354343 792.4347719637875,268.2255518229611 848,266 C 903.5652280362125,263.7744481770389 988.3884615384616,262.7935897435898 1057,244 C 1125.6115384615384,225.20641025641024 1178.0113818823665,188.60008920267984 1239,199 C 1299.9886181176335,209.39991079732016 1369.5660109320731,266.8060534456908 1418,279 C 1466.4339890679269,291.1939465543092 1493.7245743893411,258.17569701455716 1551,239 C 1608.2754256106589,219.82430298544287 1695.5356915105622,214.49115849608077 1766,210 C 1836.4643084894378,205.50884150391923 1890.1326595684109,201.8596690011198 1913,207 C 1935.8673404315891,212.1403309988802 1927.9336702157946,226.0701654994401 1920,240 C 1920,240 1920,1080 1920,1080 Z" fill="#3d1053" opacity="0.13333333333333333"/><path d="M 0,1080 C 0,1080 0,360 0,360 C 63.64932528611287,350.9788314448936 127.29865057222574,341.95766288978723 185,354 C 242.70134942777426,366.04233711021277 294.45472299721,399.14817988574464 343,393 C 391.54527700279,386.85182011425536 436.8824574389341,341.44961756723416 496,337 C 555.1175425610659,332.55038243276584 628.0154472470534,369.05334984531873 699,388 C 769.9845527529466,406.94665015468127 839.0557535728522,408.3369830514908 898,402 C 956.9442464271478,395.6630169485092 1005.7615384615383,381.598717948718 1047,365 C 1088.2384615384617,348.401282051282 1121.8980925809942,329.2681451536374 1191,327 C 1260.1019074190058,324.7318548463626 1364.6460912144848,339.32870143673256 1425,342 C 1485.3539087855152,344.67129856326744 1501.517542561066,335.4170490994325 1544,349 C 1586.482457438934,362.5829509005675 1655.2837385412515,399.00310216553737 1723,401 C 1790.7162614587485,402.99689783446263 1857.3475032739282,370.57054223841794 1890,358 C 1922.6524967260718,345.42945776158206 1921.326248363036,352.71472888079103 1920,360 C 1920,360 1920,1080 1920,1080 Z" fill="#3d1053" opacity="0.2"/><path d="M 0,1080 C 0,1080 0,480 0,480 C 71.53028525878267,469.8446203192317 143.06057051756534,459.68924063846345 199,452 C 254.93942948243466,444.31075936153655 295.28800318852126,439.08765776537797 351,446 C 406.71199681147874,452.91234223462203 477.7874167283493,471.9601283000246 546,472 C 614.2125832716507,472.0398716999754 679.5623298980813,453.0718290345234 724,438 C 768.4376701019187,422.9281709654766 791.9632636793259,411.752555561882 842,435 C 892.0367363206741,458.247444438118 968.5846153846153,515.9179487179488 1027,517 C 1085.4153846153847,518.0820512820512 1125.6982747822126,462.5756495663232 1190,457 C 1254.3017252177874,451.4243504336768 1342.6222854865343,495.7794530167587 1410,511 C 1477.3777145134657,526.2205469832413 1523.8125832716505,512.3065383666419 1576,491 C 1628.1874167283495,469.6934616333581 1686.1273814268632,440.9943935166733 1747,446 C 1807.8726185731368,451.0056064833267 1871.6778910208961,489.71588756666483 1901,501 C 1930.3221089791039,512.2841124333352 1925.161054489552,496.1420562166676 1920,480 C 1920,480 1920,1080 1920,1080 Z" fill="#3d1053" opacity="0.26666666666666666"/><path d="M 0,1080 C 0,1080 0,600 0,600 C 70.47215358044375,597.4013209588338 140.9443071608875,594.8026419176678 202,606 C 263.0556928391125,617.1973580823322 314.69492493689387,642.1907532881627 362,642 C 409.30507506310613,641.8092467118373 452.2759930915372,616.4343449296817 505,618 C 557.7240069084628,619.5656550703183 620.2011026969576,648.0718669931106 679,643 C 737.7988973030424,637.9281330068894 792.9195961206325,599.2781870978762 857,579 C 921.0804038793675,558.7218129021238 994.1205128205129,556.8153846153847 1047,568 C 1099.8794871794871,579.1846153846153 1132.5983525973163,603.4602744405853 1190,604 C 1247.4016474026837,604.5397255594147 1329.486076790222,581.343517622274 1406,567 C 1482.513923209778,552.656482377726 1553.4573402417961,547.1656550703183 1602,556 C 1650.5426597582039,564.8343449296817 1676.6845622425933,587.9938620964527 1739,600 C 1801.3154377574067,612.0061379035473 1899.8044107878304,612.8588965438706 1936,611 C 1972.1955892121696,609.1411034561294 1946.0977946060848,604.5705517280646 1920,600 C 1920,600 1920,1080 1920,1080 Z" fill="#3d1053" opacity="0.3333333333333333"/><path d="M 0,1080 C 0,1080 0,720 0,720 C 72.43716525270929,716.6684687505931 144.87433050541858,713.3369375011862 204,705 C 263.1256694945814,696.6630624988138 308.93984323103496,683.3207187458484 366,680 C 423.06015676896504,676.6792812541516 491.3662965704416,683.3801875154206 552,706 C 612.6337034295584,728.6198124845794 665.5949704871986,767.1585311924691 714,760 C 762.4050295128014,752.8414688075309 806.2538214807643,699.9856877147033 861,700 C 915.7461785192357,700.0143122852967 981.3897435897438,752.8987179487178 1035,753 C 1088.6102564102562,753.1012820512822 1130.1872041602612,700.419440490425 1190,687 C 1249.8127958397388,673.580559509575 1327.8614397692115,699.4235200895822 1400,701 C 1472.1385602307885,702.5764799104178 1538.3670367628918,679.886479151246 1584,686 C 1629.6329632371082,692.113520848754 1654.6704131792214,727.0305633054338 1720,728 C 1785.3295868207786,728.9694366945662 1890.9513105202225,695.9912676270188 1931,689 C 1971.0486894797775,682.0087323729812 1945.5243447398889,701.0043661864906 1920,720 C 1920,720 1920,1080 1920,1080 Z" fill="#3d1053" opacity="0.4"/><path d="M 0,1080 C 0,1080 0,840 0,840 C 66.01726641234413,834.7651312418152 132.03453282468826,829.5302624836304 188,843 C 243.96546717531174,856.4697375163696 289.87913511359113,888.6440813072937 351,878 C 412.12086488640887,867.3559186927063 488.4489267209475,813.8934122871947 552,797 C 615.5510732790525,780.1065877128053 666.3251580026191,799.7822695439276 723,812 C 779.6748419973809,824.2177304560724 842.250441268576,828.9775095370951 901,841 C 959.749558731424,853.0224904629049 1014.6730769230769,872.3076923076923 1064,874 C 1113.326923076923,875.6923076923077 1157.0572510391164,859.7917212321358 1205,860 C 1252.9427489608836,860.2082787678642 1305.0979189204577,876.5254227637647 1370,871 C 1434.9020810795423,865.4745772362353 1512.5510732790526,838.1065877128054 1579,831 C 1645.4489267209474,823.8934122871946 1700.6977879633323,837.0482263850139 1769,852 C 1837.3022120366677,866.9517736149861 1918.6577748676195,883.7005067471389 1946,882 C 1973.3422251323805,880.2994932528611 1946.6711125661902,860.1497466264306 1920,840 C 1920,840 1920,1080 1920,1080 Z" fill="#3d1053" opacity="0.4666666666666667"/><path d="M 0,1080 C 0,1080 0,960 0,960 C 63.79635028184251,956.7274934046955 127.59270056368501,953.454986809391 177,951 C 226.407299436315,948.545013190609 261.42554802710237,946.9075461671315 325,949 C 388.57445197289763,951.0924538328685 480.70510732790535,956.9148285220824 541,948 C 601.2948926720946,939.0851714779176 629.7540226612765,915.4331397445388 674,921 C 718.2459773387235,926.5668602554612 778.2788020269885,961.3526124997627 844,979 C 909.7211979730115,996.6473875002373 981.1307692307694,997.1564102564101 1038,990 C 1094.8692307692306,982.8435897435899 1137.1981210499346,968.0217464745963 1192,951 C 1246.8018789500654,933.9782535254037 1314.0767465694926,914.756603845205 1386,919 C 1457.9232534305074,923.243396154795 1534.494892672095,950.9518381445841 1593,967 C 1651.505107327905,983.0481618554159 1691.9436827421282,987.4360435764581 1755,980 C 1818.0563172578718,972.5639564235419 1903.730376359392,953.3039875495834 1935,948 C 1966.269623640608,942.6960124504166 1943.134811820304,951.3480062252083 1920,960 C 1920,960 1920,1080 1920,1080 Z" fill="#3d1053" opacity="0.5333333333333333"/></svg>